<svg width="570" height="93" viewBox="0 0 570 93" fill="none" xmlns="http://www.w3.org/2000/svg">
<path d="M383.683 70.4C383.683 72 383.523 73.52 383.203 74.96C382.936 76.4 382.43 77.7067 381.683 78.88C380.99 80 380.03 80.9067 378.803 81.6C377.576 82.3467 376.03 82.8 374.163 82.96L373.363 80.48C374.643 80.3733 375.79 79.9733 376.803 79.28C377.87 78.5333 378.696 77.4667 379.283 76.08C379.87 74.64 380.163 72.8533 380.163 70.72V27.2L374.323 27.04V24H383.683V70.4ZM412.415 12.96L408.095 19.84H405.695L409.055 11.04C409.215 10.6133 409.455 10.2667 409.775 10C410.095 9.73333 410.442 9.57333 410.815 9.52C411.188 9.46666 411.562 9.54666 411.935 9.76C412.362 9.97333 412.628 10.2667 412.735 10.64C412.895 11.0133 412.948 11.3867 412.895 11.76C412.842 12.1333 412.682 12.5333 412.415 12.96ZM424.015 65.12C424.015 68.5333 423.295 71.4133 421.855 73.76C420.468 76.1067 418.522 77.8933 416.015 79.12C413.508 80.2933 410.602 80.88 407.295 80.88C403.988 80.88 401.055 80.2933 398.495 79.12C395.935 77.9467 393.935 76.1867 392.495 73.84C391.108 71.4933 390.415 68.5867 390.415 65.12V24H393.855V65.12C393.855 67.84 394.415 70.1333 395.535 72C396.708 73.8133 398.282 75.2 400.255 76.16C402.282 77.0667 404.602 77.52 407.215 77.52C409.882 77.52 412.202 77.0667 414.175 76.16C416.148 75.2533 417.695 73.8667 418.815 72C419.935 70.1333 420.495 67.84 420.495 65.12V24H424.015V65.12ZM470.173 24V80H466.733L434.253 30.32V80H430.733V24H434.253L466.733 73.68V24H470.173ZM476.549 27.04V24H485.989V80H482.549V27.2L476.549 27.04ZM491.97 39.36C491.97 33.9733 493.463 29.8667 496.45 27.04C499.49 24.16 503.65 22.72 508.93 22.72C514.21 22.72 518.317 24.2133 521.25 27.2C524.183 30.1333 525.65 34.2133 525.65 39.44V65.12C525.65 68.3733 524.93 71.1733 523.49 73.52C522.103 75.8667 520.157 77.68 517.65 78.96C515.143 80.24 512.21 80.88 508.85 80.88C505.757 80.88 502.93 80.2933 500.37 79.12C497.81 77.9467 495.757 76.1867 494.21 73.84C492.717 71.4933 491.97 68.5867 491.97 65.12V39.36ZM495.49 65.12C495.49 67.84 496.077 70.1333 497.25 72C498.423 73.8133 499.997 75.2 501.97 76.16C503.997 77.0667 506.263 77.52 508.77 77.52C511.383 77.52 513.677 77.0933 515.65 76.24C517.677 75.3333 519.25 73.9467 520.37 72.08C521.543 70.2133 522.13 67.8933 522.13 65.12V38.8C522.13 36.08 521.597 33.7867 520.53 31.92C519.517 30 517.997 28.56 515.97 27.6C513.997 26.5867 511.597 26.08 508.77 26.08C506.05 26.08 503.677 26.5867 501.65 27.6C499.677 28.56 498.157 30 497.09 31.92C496.023 33.7867 495.49 36.1067 495.49 38.88V65.12ZM551.576 24C554.136 24 556.376 24.3467 558.296 25.04C560.216 25.68 561.816 26.6933 563.096 28.08C564.429 29.4667 565.416 31.28 566.056 33.52C566.749 35.76 567.096 38.4267 567.096 41.52C567.096 44.6133 566.776 47.28 566.136 49.52C565.549 51.7067 564.616 53.52 563.336 54.96C562.109 56.4 560.482 57.4933 558.456 58.24L567.336 80H563.736L555.256 59.12C554.882 59.1733 554.482 59.2267 554.056 59.28C553.629 59.3333 553.176 59.3867 552.696 59.44C552.269 59.44 551.816 59.44 551.336 59.44H535.816V80H532.296V24H551.576ZM551.576 56C553.442 56 555.096 55.7867 556.536 55.36C558.029 54.9333 559.282 54.1867 560.296 53.12C561.362 52.0533 562.162 50.5867 562.696 48.72C563.282 46.8 563.576 44.4 563.576 41.52C563.576 38.8533 563.282 36.6133 562.696 34.8C562.162 32.9867 561.389 31.5467 560.376 30.48C559.362 29.36 558.136 28.56 556.696 28.08C555.256 27.6 553.629 27.36 551.816 27.36H535.816V56H551.576Z" fill="#0C1F3F"/>
<path d="M146.885 75.8C142.619 75.8 138.645 75.1067 134.965 73.72C131.339 72.28 128.165 70.28 125.445 67.72C122.779 65.1067 120.699 62.04 119.205 58.52C117.712 55 116.965 51.16 116.965 47C116.965 42.84 117.712 39 119.205 35.48C120.699 31.96 122.805 28.92 125.525 26.36C128.245 23.7467 131.419 21.7467 135.045 20.36C138.672 18.92 142.645 18.2 146.965 18.2C151.552 18.2 155.739 19 159.525 20.6C163.312 22.1467 166.512 24.4667 169.125 27.56L162.405 33.88C160.379 31.6933 158.112 30.0667 155.605 29C153.099 27.88 150.379 27.32 147.445 27.32C144.512 27.32 141.819 27.8 139.365 28.76C136.965 29.72 134.859 31.08 133.045 32.84C131.285 34.6 129.899 36.68 128.885 39.08C127.925 41.48 127.445 44.12 127.445 47C127.445 49.88 127.925 52.52 128.885 54.92C129.899 57.32 131.285 59.4 133.045 61.16C134.859 62.92 136.965 64.28 139.365 65.24C141.819 66.2 144.512 66.68 147.445 66.68C150.379 66.68 153.099 66.1467 155.605 65.08C158.112 63.96 160.379 62.28 162.405 60.04L169.125 66.44C166.512 69.48 163.312 71.8 159.525 73.4C155.739 75 151.525 75.8 146.885 75.8ZM195.69 75.56C191.316 75.56 187.423 74.6267 184.01 72.76C180.596 70.84 177.903 68.2267 175.93 64.92C173.956 61.6133 172.97 57.8533 172.97 53.64C172.97 49.3733 173.956 45.6133 175.93 42.36C177.903 39.0533 180.596 36.4667 184.01 34.6C187.423 32.7333 191.316 31.8 195.69 31.8C200.116 31.8 204.036 32.7333 207.45 34.6C210.916 36.4667 213.61 39.0267 215.53 42.28C217.503 45.5333 218.49 49.32 218.49 53.64C218.49 57.8533 217.503 61.6133 215.53 64.92C213.61 68.2267 210.916 70.84 207.45 72.76C204.036 74.6267 200.116 75.56 195.69 75.56ZM195.69 67C198.143 67 200.33 66.4667 202.25 65.4C204.17 64.3333 205.663 62.7867 206.73 60.76C207.85 58.7333 208.41 56.36 208.41 53.64C208.41 50.8667 207.85 48.4933 206.73 46.52C205.663 44.4933 204.17 42.9467 202.25 41.88C200.33 40.8133 198.17 40.28 195.77 40.28C193.316 40.28 191.13 40.8133 189.21 41.88C187.343 42.9467 185.85 44.4933 184.73 46.52C183.61 48.4933 183.05 50.8667 183.05 53.64C183.05 56.36 183.61 58.7333 184.73 60.76C185.85 62.7867 187.343 64.3333 189.21 65.4C191.13 66.4667 193.29 67 195.69 67ZM281.972 31.8C285.386 31.8 288.399 32.4667 291.012 33.8C293.679 35.1333 295.759 37.1867 297.252 39.96C298.746 42.68 299.492 46.2 299.492 50.52V75H289.492V51.8C289.492 48.0133 288.666 45.1867 287.012 43.32C285.359 41.4533 282.986 40.52 279.892 40.52C277.706 40.52 275.759 41 274.052 41.96C272.399 42.92 271.092 44.3333 270.132 46.2C269.226 48.0667 268.772 50.44 268.772 53.32V75H258.772V51.8C258.772 48.0133 257.946 45.1867 256.292 43.32C254.639 41.4533 252.266 40.52 249.172 40.52C246.986 40.52 245.039 41 243.332 41.96C241.679 42.92 240.372 44.3333 239.412 46.2C238.506 48.0667 238.052 50.44 238.052 53.32V75H228.052V32.28H237.572V43.64L235.892 40.28C237.332 37.5067 239.412 35.4 242.132 33.96C244.906 32.52 248.052 31.8 251.572 31.8C255.572 31.8 259.039 32.7867 261.972 34.76C264.959 36.7333 266.932 39.72 267.892 43.72L263.972 42.36C265.359 39.16 267.652 36.6 270.852 34.68C274.052 32.76 277.759 31.8 281.972 31.8ZM335.951 75.56C332.484 75.56 329.311 74.76 326.431 73.16C323.604 71.56 321.338 69.16 319.631 65.96C317.978 62.7067 317.151 58.6 317.151 53.64C317.151 48.6267 317.951 44.52 319.551 41.32C321.204 38.12 323.444 35.7467 326.271 34.2C329.098 32.6 332.324 31.8 335.951 31.8C340.164 31.8 343.871 32.7067 347.071 34.52C350.324 36.3333 352.884 38.8667 354.751 42.12C356.671 45.3733 357.631 49.2133 357.631 53.64C357.631 58.0667 356.671 61.9333 354.751 65.24C352.884 68.4933 350.324 71.0267 347.071 72.84C343.871 74.6533 340.164 75.56 335.951 75.56ZM312.271 90.52V32.28H321.791V42.36L321.471 53.72L322.271 65.08V90.52H312.271ZM334.831 67C337.231 67 339.364 66.4667 341.231 65.4C343.151 64.3333 344.671 62.7867 345.791 60.76C346.911 58.7333 347.471 56.36 347.471 53.64C347.471 50.8667 346.911 48.4933 345.791 46.52C344.671 44.4933 343.151 42.9467 341.231 41.88C339.364 40.8133 337.231 40.28 334.831 40.28C332.431 40.28 330.271 40.8133 328.351 41.88C326.431 42.9467 324.911 44.4933 323.791 46.52C322.671 48.4933 322.111 50.8667 322.111 53.64C322.111 56.36 322.671 58.7333 323.791 60.76C324.911 62.7867 326.431 64.3333 328.351 65.4C330.271 66.4667 332.431 67 334.831 67Z" fill="#0C1F3F"/>
<path fill-rule="evenodd" clip-rule="evenodd" d="M87.5349 54.7059C90.5537 54.7029 93 52.2548 93 49.2353V5.47059C93 2.44927 90.5507 0 87.5294 0H43.7647C40.7434 0 38.2941 2.44927 38.2941 5.47059V49.2353C38.2941 52.2544 40.7397 54.7022 43.758 54.7059C43.7602 54.7059 43.7625 54.7059 43.7647 54.7059L49.2353 54.7059C49.2385 54.7059 49.2416 54.7059 49.2448 54.7059H65.6375C65.6407 54.7059 65.6439 54.7059 65.6471 54.7059H87.5294C87.5312 54.7059 87.5331 54.7059 87.5349 54.7059ZM60.1765 65.6471V87.5294C60.1765 90.5507 62.6257 93 65.6471 93H87.5294C90.5507 93 93 90.5507 93 87.5294V65.6471C93 62.6257 90.5507 60.1765 87.5294 60.1765H65.6471C62.6257 60.1765 60.1765 62.6257 60.1765 65.6471ZM54.7059 65.6415C54.7029 62.6228 52.2548 60.1765 49.2353 60.1765H36.2877C34.3745 60.1765 32.8235 58.6255 32.8235 56.7123V49.242C32.8235 49.2398 32.8235 49.2375 32.8235 49.2353V43.7647C32.8235 43.7631 32.8235 43.7615 32.8235 43.7599C32.821 40.7408 30.3727 38.2941 27.3529 38.2941H5.47059C2.44927 38.2941 0 40.7434 0 43.7647V87.5294C0 90.5507 2.44927 93 5.4706 93H49.2353C52.2548 93 54.7029 90.5537 54.7059 87.5349C54.7059 87.5331 54.7059 87.5312 54.7059 87.5294V65.6471C54.7059 65.6452 54.7059 65.6434 54.7059 65.6415ZM27.3568 32.8235C30.3748 32.8214 32.821 30.3755 32.8235 27.3577C32.8235 27.3561 32.8235 27.3545 32.8235 27.3529V5.4706C32.8235 5.4693 32.8235 5.468 32.8235 5.4667C32.8214 2.44716 30.373 0 27.3529 0H5.47059C2.44927 0 0 2.44926 0 5.47059V27.3529C0 30.373 2.44716 32.8214 5.46669 32.8235C5.46799 32.8235 5.46929 32.8235 5.47059 32.8235H27.3529C27.3542 32.8235 27.3555 32.8235 27.3568 32.8235Z" fill="#0C1F3F"/>
</svg>
