<svg width="93" height="93" viewBox="0 0 93 93" fill="none" xmlns="http://www.w3.org/2000/svg">
<path fill-rule="evenodd" clip-rule="evenodd" d="M87.5349 54.7059C90.5537 54.7029 93 52.2548 93 49.2353V5.47059C93 2.44927 90.5507 0 87.5294 0H43.7647C40.7434 0 38.2941 2.44927 38.2941 5.47059V49.2353C38.2941 52.2544 40.7397 54.7022 43.758 54.7059C43.7602 54.7059 43.7625 54.7059 43.7647 54.7059L49.2353 54.7059C49.2385 54.7059 49.2416 54.7059 49.2448 54.7059H65.6375C65.6407 54.7059 65.6439 54.7059 65.6471 54.7059H87.5294C87.5312 54.7059 87.5331 54.7059 87.5349 54.7059ZM60.1765 65.6471V87.5294C60.1765 90.5507 62.6257 93 65.6471 93H87.5294C90.5507 93 93 90.5507 93 87.5294V65.6471C93 62.6257 90.5507 60.1765 87.5294 60.1765H65.6471C62.6257 60.1765 60.1765 62.6257 60.1765 65.6471ZM54.7059 65.6415C54.7029 62.6228 52.2548 60.1765 49.2353 60.1765H36.2877C34.3745 60.1765 32.8235 58.6255 32.8235 56.7123V49.242C32.8235 49.2398 32.8235 49.2375 32.8235 49.2353V43.7647C32.8235 43.7631 32.8235 43.7615 32.8235 43.7599C32.821 40.7408 30.3727 38.2941 27.3529 38.2941H5.47059C2.44927 38.2941 0 40.7434 0 43.7647V87.5294C0 90.5507 2.44927 93 5.4706 93H49.2353C52.2548 93 54.7029 90.5537 54.7059 87.5349C54.7059 87.5331 54.7059 87.5312 54.7059 87.5294V65.6471C54.7059 65.6452 54.7059 65.6434 54.7059 65.6415ZM27.3568 32.8235C30.3748 32.8214 32.821 30.3755 32.8235 27.3577C32.8235 27.3561 32.8235 27.3545 32.8235 27.3529V5.4706C32.8235 5.4693 32.8235 5.468 32.8235 5.4667C32.8214 2.44716 30.373 0 27.3529 0H5.47059C2.44927 0 0 2.44926 0 5.47059V27.3529C0 30.373 2.44716 32.8214 5.46669 32.8235C5.46799 32.8235 5.46929 32.8235 5.47059 32.8235H27.3529C27.3542 32.8235 27.3555 32.8235 27.3568 32.8235Z" fill="#0C1F3F"/>
</svg>
